<?xml version="1.0" standalone="no"?>
<!DOCTYPE svg PUBLIC "-//W3C//DTD SVG 20010904//EN"
 "http://www.w3.org/TR/2001/REC-SVG-20010904/DTD/svg10.dtd">
<svg version="1.0" xmlns="http://www.w3.org/2000/svg"
 width="512.000000pt" height="512.000000pt" viewBox="0 0 512.000000 512.000000"
 preserveAspectRatio="xMidYMid meet">
<metadata>
Created by potrace 1.14, written by Peter Selinger 2001-2017
</metadata>
<g transform="translate(0.000000,512.000000) scale(0.100000,-0.100000)"
fill="#000000" stroke="none">
<path d="M700 4793 c-14 -2 -54 -13 -90 -24 -198 -62 -353 -218 -423 -422
l-22 -62 -2 -1700 c-3 -1899 -8 -1757 69 -1914 80 -162 248 -293 428 -335 96
-23 3688 -23 3793 -1 184 39 353 170 436 338 76 154 71 17 68 1907 -1 932 -5
1704 -9 1715 -51 157 -92 229 -183 320 -83 82 -199 146 -306 170 -53 11 -372
13 -1899 13 -1009 -1 -1846 -3 -1860 -5z m331 -648 c18 -11 51 -37 179 -140
47 -38 103 -83 124 -100 62 -48 259 -205 281 -223 24 -19 113 -91 135 -109 99
-77 144 -121 157 -151 18 -43 12 -109 -14 -148 -12 -20 -350 -296 -673 -551
-8 -6 -42 -33 -75 -60 -112 -91 -124 -97 -186 -98 -62 0 -94 17 -133 68 -27
37 -28 130 -2 170 10 15 73 71 140 124 67 54 126 102 132 108 7 5 100 80 208
165 107 85 195 157 195 160 0 3 -43 39 -95 80 -53 41 -101 80 -107 85 -7 6
-73 59 -147 118 -74 59 -142 113 -150 120 -8 7 -48 38 -88 70 -80 64 -99 87
-108 135 -14 71 26 150 90 177 34 15 113 14 137 0z m1615 -1291 c52 -39 69
-70 69 -133 0 -48 -5 -64 -29 -96 -49 -64 -55 -65 -445 -65 -223 0 -360 4
-378 11 -98 37 -133 170 -65 251 48 57 53 58 454 55 353 -2 368 -3 394 -23z"/>
</g>
</svg>
